<svg width="53" height="52" viewBox="0 0 53 52" fill="none" xmlns="http://www.w3.org/2000/svg">
<path d="M26.5 0C12.164 0 0.5 11.663 0.5 26C0.5 40.337 12.164 52 26.5 52C40.836 52 52.5 40.337 52.5 26C52.5 11.663 40.836 0 26.5 0ZM26.5 50C13.267 50 2.5 39.233 2.5 26C2.5 12.767 13.267 2 26.5 2C39.733 2 50.5 12.767 50.5 26C50.5 39.233 39.733 50 26.5 50Z" fill="#4CAF50"/>
<path d="M38.752 15.336L23.383 32.626L14.124 25.219C13.694 24.874 13.063 24.945 12.719 25.375C12.374 25.807 12.444 26.436 12.875 26.781L22.875 34.781C23.059 34.928 23.28 35 23.5 35C23.776 35 24.051 34.886 24.248 34.664L40.248 16.664C40.615 16.252 40.578 15.619 40.165 15.253C39.751 14.885 39.12 14.922 38.752 15.336Z" fill="#4CAF50"/>
</svg>
