<?xml version="1.0" encoding="UTF-8"?>
<!DOCTYPE svg PUBLIC "-//W3C//DTD SVG 1.1//EN" "http://www.w3.org/Graphics/SVG/1.1/DTD/svg11.dtd">
<svg xmlns="http://www.w3.org/2000/svg" version="1.1" width="360px" height="360px" style="shape-rendering:geometricPrecision; text-rendering:geometricPrecision; image-rendering:optimizeQuality; fill-rule:evenodd; clip-rule:evenodd" xmlns:xlink="http://www.w3.org/1999/xlink">
<g><path style="opacity:0.706" fill="#797979" d="M 127.5,76.5 C 127.082,77.2216 126.416,77.7216 125.5,78C 126.094,78.4643 126.761,78.631 127.5,78.5C 118.626,82.6895 109.959,87.3561 101.5,92.5C 105.364,89.3001 109.197,85.9667 113,82.5C 113.333,82.8333 113.667,83.1667 114,83.5C 118.203,80.4824 122.703,78.1491 127.5,76.5 Z"/></g>
<g><path style="opacity:0.02" fill="#cbcccb" d="M 101.5,92.5 C 100.833,93.1667 100.833,93.1667 101.5,92.5 Z"/></g>
<g><path style="opacity:1" fill="#a12a2a" d="M 204.5,110.5 C 214.046,108.601 223.38,109.768 232.5,114C 234.544,114.498 235.878,115.665 236.5,117.5C 226.907,112.187 216.574,109.853 205.5,110.5C 205.167,110.5 204.833,110.5 204.5,110.5 Z"/></g>
<g><path style="opacity:1" fill="#be1e24" d="M 231.5,110.5 C 232.919,111.451 234.585,111.784 236.5,111.5C 236.833,111.5 237.167,111.5 237.5,111.5C 239.291,115.945 242.624,118.612 247.5,119.5C 247.833,119.5 248.167,119.5 248.5,119.5C 248.738,121.404 249.738,122.738 251.5,123.5C 252.08,125.749 253.413,127.415 255.5,128.5C 256.188,131.718 257.188,134.884 258.5,138C 257.631,140.004 257.298,141.837 257.5,143.5C 257.5,142.833 257.167,142.5 256.5,142.5C 255.59,139.008 253.924,136.008 251.5,133.5C 249.878,130.545 247.878,127.878 245.5,125.5C 242.474,122.805 239.474,120.138 236.5,117.5C 235.878,115.665 234.544,114.498 232.5,114C 223.38,109.768 214.046,108.601 204.5,110.5C 202.097,110.448 199.764,110.781 197.5,111.5C 194.088,112.075 191.088,113.408 188.5,115.5C 188.167,115.5 187.833,115.5 187.5,115.5C 187.414,114.504 187.748,113.671 188.5,113C 187.207,112.51 185.873,112.343 184.5,112.5C 199.702,105.263 215.369,104.596 231.5,110.5 Z"/></g>
<g><path style="opacity:1" fill="#c06060" d="M 225.5,106.5 C 229.613,107.393 233.28,109.06 236.5,111.5C 234.585,111.784 232.919,111.451 231.5,110.5C 229.5,109.167 227.5,107.833 225.5,106.5 Z"/></g>
<g><path style="opacity:1" fill="#b0423d" d="M 158.5,112.5 C 151.876,110.571 145.209,108.737 138.5,107C 125.402,104.454 113.402,106.788 102.5,114C 98.7767,117.393 94.7767,120.393 90.5,123C 88.7175,126.946 86.0508,130.113 82.5,132.5C 89.9798,119.409 100.98,110.576 115.5,106C 127.694,103.524 139.694,104.19 151.5,108C 154.239,109.026 156.572,110.526 158.5,112.5 Z"/></g>
<g><path style="opacity:1" fill="#ca1f24" d="M 158.5,112.5 C 158.833,112.5 159.167,112.5 159.5,112.5C 160.502,114.011 161.169,115.678 161.5,117.5C 163.824,117.662 165.491,118.828 166.5,121C 167.667,121.167 168.833,121.333 170,121.5C 175.024,118.609 179.857,115.609 184.5,112.5C 185.873,112.343 187.207,112.51 188.5,113C 187.748,113.671 187.414,114.504 187.5,115.5C 185.938,115.733 184.605,116.4 183.5,117.5C 179.808,119.533 176.808,122.2 174.5,125.5C 172.545,126.323 170.545,126.49 168.5,126C 160.038,118.693 150.371,113.693 139.5,111C 131.797,110.358 124.131,110.691 116.5,112C 114.767,113.189 113.1,114.356 111.5,115.5C 109.801,115.34 108.134,115.506 106.5,116C 100.136,120.735 94.1359,125.901 88.5,131.5C 87.8108,133.444 87.3108,135.444 87,137.5C 82.4523,142.151 80.1189,147.817 80,154.5C 79.3333,164.833 79.3333,175.167 80,185.5C 81.9801,190.107 83.6468,194.774 85,199.5C 85.5,200.667 86.3333,201.5 87.5,202C 92.4889,202.499 97.4889,202.666 102.5,202.5C 95.7325,204.317 88.7325,204.817 81.5,204C 80.1387,202.416 79.472,200.582 79.5,198.5C 76.9689,187.979 75.3022,177.313 74.5,166.5C 74.8333,162.833 75.1667,159.167 75.5,155.5C 77.1781,150.965 78.3448,146.298 79,141.5C 81.741,139.933 82.9077,137.599 82.5,134.5C 82.5,133.833 82.5,133.167 82.5,132.5C 86.0508,130.113 88.7175,126.946 90.5,123C 94.7767,120.393 98.7767,117.393 102.5,114C 113.402,106.788 125.402,104.454 138.5,107C 145.209,108.737 151.876,110.571 158.5,112.5 Z"/></g>
<g><path style="opacity:1" fill="#f8cfcf" d="M 205.5,110.5 C 216.574,109.853 226.907,112.187 236.5,117.5C 239.474,120.138 242.474,122.805 245.5,125.5C 244.796,127.344 243.463,127.844 241.5,127C 233.639,121.205 224.972,117.205 215.5,115C 214.09,114.632 213.09,113.799 212.5,112.5C 210.031,111.832 207.698,111.165 205.5,110.5 Z"/></g>
<g><path style="opacity:1" fill="#c25e5c" d="M 237.5,111.5 C 241.674,113.237 245.007,115.903 247.5,119.5C 242.624,118.612 239.291,115.945 237.5,111.5 Z"/></g>
<g><path style="opacity:1" fill="#f68b8f" d="M 204.5,110.5 C 212.407,114.712 220.074,119.545 227.5,125C 231.224,125.797 234.89,126.797 238.5,128C 240.431,128.902 242.097,130.069 243.5,131.5C 239.367,130.102 235.034,129.269 230.5,129C 224.882,125.683 219.382,122.183 214,118.5C 208.282,117.314 202.782,115.647 197.5,113.5C 196.494,113.062 196.494,112.396 197.5,111.5C 199.764,110.781 202.097,110.448 204.5,110.5 Z"/></g>
<g><path style="opacity:1" fill="#b13d3b" d="M 225.5,106.5 C 227.5,107.833 229.5,109.167 231.5,110.5C 215.369,104.596 199.702,105.263 184.5,112.5C 179.857,115.609 175.024,118.609 170,121.5C 168.833,121.333 167.667,121.167 166.5,121C 165.491,118.828 163.824,117.662 161.5,117.5C 161.169,115.678 160.502,114.011 159.5,112.5C 162.808,114.641 165.975,116.975 169,119.5C 177.71,112.474 187.544,107.641 198.5,105C 206.167,104.333 213.833,104.333 221.5,105C 223.058,105.21 224.391,105.71 225.5,106.5 Z"/></g>
<g><path style="opacity:0.455" fill="#e0999c" d="M 248.5,119.5 C 250.262,120.262 251.262,121.596 251.5,123.5C 249.738,122.738 248.738,121.404 248.5,119.5 Z"/></g>
<g><path style="opacity:0.769" fill="#c66d6e" d="M 251.5,123.5 C 253.587,124.585 254.92,126.251 255.5,128.5C 253.413,127.415 252.08,125.749 251.5,123.5 Z"/></g>
<g><path style="opacity:1" fill="#eb1c22" d="M 190.5,149.5 C 187.128,150.705 184.962,153.039 184,156.5C 181.613,162.269 180.446,168.269 180.5,174.5C 180.5,174.833 180.5,175.167 180.5,175.5C 179.042,177.932 177.875,180.599 177,183.5C 176.233,190.911 175.066,198.245 173.5,205.5C 171.721,202.44 170.055,199.44 168.5,196.5C 168.5,196.167 168.5,195.833 168.5,195.5C 168.566,187.497 164.566,182.83 156.5,181.5C 154.182,181.997 151.848,182.33 149.5,182.5C 149.241,186.068 147.241,187.401 143.5,186.5C 142.949,191.74 140.949,196.406 137.5,200.5C 135.844,198.54 134.177,196.54 132.5,194.5C 130.929,193.691 129.262,193.357 127.5,193.5C 126.486,192.235 124.986,191.569 123,191.5C 119.8,191.147 117.133,192.147 115,194.5C 114.282,193.549 113.449,193.383 112.5,194C 113.337,195.011 113.67,196.178 113.5,197.5C 109.793,198.686 106.46,200.353 103.5,202.5C 103.167,202.5 102.833,202.5 102.5,202.5C 97.4889,202.666 92.4889,202.499 87.5,202C 86.3333,201.5 85.5,200.667 85,199.5C 83.6468,194.774 81.9801,190.107 80,185.5C 79.3333,175.167 79.3333,164.833 80,154.5C 80.1189,147.817 82.4523,142.151 87,137.5C 87.3108,135.444 87.8108,133.444 88.5,131.5C 94.1359,125.901 100.136,120.735 106.5,116C 108.134,115.506 109.801,115.34 111.5,115.5C 116.247,114.055 121.08,112.722 126,111.5C 129.129,112.13 132.296,112.796 135.5,113.5C 137.654,116.606 140.487,117.606 144,116.5C 148.596,119.878 153.762,121.712 159.5,122C 163.845,126.49 169.179,128.99 175.5,129.5C 175.5,130.833 175.5,132.167 175.5,133.5C 180.584,135.694 185.917,137.361 191.5,138.5C 195.004,140.418 198.337,142.584 201.5,145C 198.471,145.539 195.471,146.206 192.5,147C 191.244,147.417 190.577,148.25 190.5,149.5 Z M 129.5,133.5 C 129.5,137.5 129.5,141.5 129.5,145.5C 133.5,145.5 137.5,145.5 141.5,145.5C 141.5,149.5 141.5,153.5 141.5,157.5C 137.801,158.511 134.134,158.511 130.5,157.5C 129.513,160.768 129.18,164.102 129.5,167.5C 127.639,168.842 125.639,169.842 123.5,170.5C 121.167,170.5 118.833,170.5 116.5,170.5C 116.817,166.298 116.483,162.298 115.5,158.5C 111.774,158.823 108.107,158.489 104.5,157.5C 103.574,153.906 103.241,150.24 103.5,146.5C 107.735,145.564 112.069,145.231 116.5,145.5C 116.5,141.5 116.5,137.5 116.5,133.5C 120.833,133.5 125.167,133.5 129.5,133.5 Z"/></g>
<g><path style="opacity:1" fill="#f6a1a2" d="M 204.5,110.5 C 204.833,110.5 205.167,110.5 205.5,110.5C 207.698,111.165 210.031,111.832 212.5,112.5C 213.09,113.799 214.09,114.632 215.5,115C 224.972,117.205 233.639,121.205 241.5,127C 243.463,127.844 244.796,127.344 245.5,125.5C 247.878,127.878 249.878,130.545 251.5,133.5C 248.363,135.98 245.696,135.313 243.5,131.5C 242.097,130.069 240.431,128.902 238.5,128C 234.89,126.797 231.224,125.797 227.5,125C 220.074,119.545 212.407,114.712 204.5,110.5 Z"/></g>
<g><path style="opacity:1" fill="#f25a60" d="M 197.5,111.5 C 196.494,112.396 196.494,113.062 197.5,113.5C 197.47,114.497 197.97,115.164 199,115.5C 202.796,115.974 205.629,117.807 207.5,121C 215.875,122.521 223.208,126.187 229.5,132C 236.032,133.546 242.365,135.546 248.5,138C 248.953,140.693 250.453,142.527 253,143.5C 254.147,142.542 255.147,142.875 256,144.5C 256.464,143.906 256.631,143.239 256.5,142.5C 257.167,142.5 257.5,142.833 257.5,143.5C 257.328,144.492 257.662,145.158 258.5,145.5C 258.833,147.5 259.167,149.5 259.5,151.5C 258.124,151.253 257.29,149.919 257,147.5C 256.692,148.308 256.192,148.975 255.5,149.5C 246.482,144.659 237.149,140.493 227.5,137C 226.743,135.488 225.743,134.154 224.5,133C 219.613,130.723 214.613,128.723 209.5,127C 208.833,126 208.167,125 207.5,124C 201.208,122.07 194.874,120.236 188.5,118.5C 188.5,117.5 188.5,116.5 188.5,115.5C 191.088,113.408 194.088,112.075 197.5,111.5 Z"/></g>
<g><path style="opacity:1" fill="#f47579" d="M 197.5,113.5 C 202.782,115.647 208.282,117.314 214,118.5C 219.382,122.183 224.882,125.683 230.5,129C 235.034,129.269 239.367,130.102 243.5,131.5C 245.696,135.313 248.363,135.98 251.5,133.5C 253.924,136.008 255.59,139.008 256.5,142.5C 256.631,143.239 256.464,143.906 256,144.5C 255.147,142.875 254.147,142.542 253,143.5C 250.453,142.527 248.953,140.693 248.5,138C 242.365,135.546 236.032,133.546 229.5,132C 223.208,126.187 215.875,122.521 207.5,121C 205.629,117.807 202.796,115.974 199,115.5C 197.97,115.164 197.47,114.497 197.5,113.5 Z"/></g>
<g><path style="opacity:0.11" fill="#edaeaf" d="M 82.5,132.5 C 82.5,133.167 82.5,133.833 82.5,134.5C 81.8333,134.833 81.1667,135.167 80.5,135.5C 80.427,133.973 81.0937,132.973 82.5,132.5 Z"/></g>
<g><path style="opacity:1" fill="#ef4148" d="M 187.5,115.5 C 187.833,115.5 188.167,115.5 188.5,115.5C 188.5,116.5 188.5,117.5 188.5,118.5C 194.874,120.236 201.208,122.07 207.5,124C 208.167,125 208.833,126 209.5,127C 214.613,128.723 219.613,130.723 224.5,133C 225.743,134.154 226.743,135.488 227.5,137C 237.149,140.493 246.482,144.659 255.5,149.5C 256.192,148.975 256.692,148.308 257,147.5C 257.29,149.919 258.124,151.253 259.5,151.5C 260.404,152.209 260.737,153.209 260.5,154.5C 259.233,156.039 258.233,157.706 257.5,159.5C 257.703,157.61 257.037,156.11 255.5,155C 246.626,151.15 237.626,147.483 228.5,144C 222.358,139.931 215.692,136.931 208.5,135C 202.869,131.691 197.535,128.024 192.5,124C 191.833,122.667 191.167,121.333 190.5,120C 187.809,119.844 185.476,119.011 183.5,117.5C 184.605,116.4 185.938,115.733 187.5,115.5 Z"/></g>
<g><path style="opacity:0.127" fill="#fcabac" d="M 129.5,133.5 C 125.167,133.5 120.833,133.5 116.5,133.5C 116.5,137.5 116.5,141.5 116.5,145.5C 112.069,145.231 107.735,145.564 103.5,146.5C 103.5,146.167 103.5,145.833 103.5,145.5C 107.298,144.517 111.298,144.183 115.5,144.5C 115.5,140.5 115.5,136.5 115.5,132.5C 120.363,132.181 125.03,132.514 129.5,133.5 Z"/></g>
<g><path style="opacity:1" fill="#b43635" d="M 255.5,128.5 C 261.582,135.673 265.248,144.006 266.5,153.5C 264.72,152.01 264.054,150.01 264.5,147.5C 263.5,147.5 262.5,147.5 261.5,147.5C 261.54,143.8 260.54,143.133 258.5,145.5C 257.662,145.158 257.328,144.492 257.5,143.5C 257.298,141.837 257.631,140.004 258.5,138C 257.188,134.884 256.188,131.718 255.5,128.5 Z"/></g>
<g><path style="opacity:0.922" fill="#c83333" d="M 129.5,133.5 C 130.477,136.287 130.81,139.287 130.5,142.5C 134.437,142.207 138.27,142.54 142,143.5C 142.816,148.684 142.65,153.684 141.5,158.5C 141.5,158.167 141.5,157.833 141.5,157.5C 141.5,153.5 141.5,149.5 141.5,145.5C 137.5,145.5 133.5,145.5 129.5,145.5C 129.5,141.5 129.5,137.5 129.5,133.5 Z"/></g>
<g><path style="opacity:1" fill="#454545" d="M 294.5,141.5 C 299.383,163.436 299.716,185.436 295.5,207.5C 290.99,224.195 283.99,239.861 274.5,254.5C 275.457,257.559 277.29,258.559 280,257.5C 280,258.833 280,260.167 280,261.5C 281,260.167 282,258.833 283,257.5C 283.464,258.094 283.631,258.761 283.5,259.5C 279.612,266.72 274.612,273.053 268.5,278.5C 268.662,276.473 268.495,274.473 268,272.5C 265.031,273.603 264.864,274.936 267.5,276.5C 265.675,277.571 264.508,276.904 264,274.5C 263.517,275.448 263.351,276.448 263.5,277.5C 262.448,277.649 261.448,277.483 260.5,277C 261.517,275.951 261.684,274.784 261,273.5C 259.556,275.155 257.722,275.822 255.5,275.5C 257.49,273.069 259.657,270.736 262,268.5C 262.483,267.552 262.649,266.552 262.5,265.5C 263.822,265.67 264.989,265.337 266,264.5C 267.099,261.136 268.599,257.97 270.5,255C 269.773,253.601 269.273,252.101 269,250.5C 268.189,251.96 267.355,252.293 266.5,251.5C 266.543,249.182 266.876,246.849 267.5,244.5C 278.691,229.582 285.358,212.916 287.5,194.5C 288.756,192.254 288.923,185.921 288,175.5C 287.366,169.866 286.866,169.532 286.5,174.5C 278.166,127.5 251.832,95.1664 207.5,77.5C 205.383,75.3455 202.716,74.3455 199.5,74.5C 175.121,69.4654 151.121,70.7988 127.5,78.5C 126.761,78.631 126.094,78.4643 125.5,78C 126.416,77.7216 127.082,77.2216 127.5,76.5C 151.349,65.5851 176.349,62.4185 202.5,67C 240.51,74.6885 269.343,95.1885 289,128.5C 291.397,132.624 293.231,136.957 294.5,141.5 Z"/></g>
<g><path style="opacity:0.686" fill="#888888" d="M 199.5,74.5 C 202.716,74.3455 205.383,75.3455 207.5,77.5C 204.603,76.871 201.936,75.871 199.5,74.5 Z"/></g>
<g><path style="opacity:0.671" fill="#d58d89" d="M 77.5,142.5 C 77.4725,145.916 76.4725,148.916 74.5,151.5C 74.9281,148.215 75.9281,145.215 77.5,142.5 Z"/></g>
<g><path style="opacity:1" fill="#ee353c" d="M 183.5,117.5 C 185.476,119.011 187.809,119.844 190.5,120C 191.167,121.333 191.833,122.667 192.5,124C 197.535,128.024 202.869,131.691 208.5,135C 215.692,136.931 222.358,139.931 228.5,144C 237.626,147.483 246.626,151.15 255.5,155C 257.037,156.11 257.703,157.61 257.5,159.5C 249.86,155.557 242.026,151.891 234,148.5C 233.667,148.833 233.333,149.167 233,149.5C 232.626,148.584 232.126,147.75 231.5,147C 224.793,144.309 218.127,141.642 211.5,139C 209.246,138.376 207.579,137.043 206.5,135C 198.904,132.016 191.238,129.183 183.5,126.5C 181.06,123.41 178.06,123.076 174.5,125.5C 176.808,122.2 179.808,119.533 183.5,117.5 Z"/></g>
<g><path style="opacity:1" fill="#ec292f" d="M 174.5,125.5 C 178.06,123.076 181.06,123.41 183.5,126.5C 191.238,129.183 198.904,132.016 206.5,135C 207.579,137.043 209.246,138.376 211.5,139C 218.127,141.642 224.793,144.309 231.5,147C 232.126,147.75 232.626,148.584 233,149.5C 233.333,149.167 233.667,148.833 234,148.5C 242.026,151.891 249.86,155.557 257.5,159.5C 258.233,157.706 259.233,156.039 260.5,154.5C 261.485,158.634 261.818,162.968 261.5,167.5C 260.683,165.031 260.183,162.365 260,159.5C 259.503,162.146 259.336,164.813 259.5,167.5C 258.5,167.5 257.5,167.5 256.5,167.5C 256.649,166.448 256.483,165.448 256,164.5C 255.667,164.833 255.333,165.167 255,165.5C 252.34,164.166 249.506,163.332 246.5,163C 240.51,160.709 234.843,157.709 229.5,154C 225.833,153.667 222.167,153.333 218.5,153C 216.285,151.057 216.285,149.391 218.5,148C 213.916,146.637 209.249,145.803 204.5,145.5C 205.516,148.2 205.516,150.866 204.5,153.5C 207.328,155.748 210.328,157.748 213.5,159.5C 213.062,160.506 212.396,160.506 211.5,159.5C 211.167,160.5 210.833,161.5 210.5,162.5C 211.764,169.15 212.764,175.816 213.5,182.5C 212.833,182.167 212.167,181.833 211.5,181.5C 211.5,180.5 211.5,179.5 211.5,178.5C 211.432,172.228 210.099,166.228 207.5,160.5C 207.043,159.702 206.376,159.369 205.5,159.5C 203.012,154.345 199.012,151.012 193.5,149.5C 192.5,149.5 191.5,149.5 190.5,149.5C 190.577,148.25 191.244,147.417 192.5,147C 195.471,146.206 198.471,145.539 201.5,145C 198.337,142.584 195.004,140.418 191.5,138.5C 185.917,137.361 180.584,135.694 175.5,133.5C 175.5,132.167 175.5,130.833 175.5,129.5C 169.179,128.99 163.845,126.49 159.5,122C 153.762,121.712 148.596,119.878 144,116.5C 140.487,117.606 137.654,116.606 135.5,113.5C 132.296,112.796 129.129,112.13 126,111.5C 121.08,112.722 116.247,114.055 111.5,115.5C 113.1,114.356 114.767,113.189 116.5,112C 124.131,110.691 131.797,110.358 139.5,111C 150.371,113.693 160.038,118.693 168.5,126C 170.545,126.49 172.545,126.323 174.5,125.5 Z"/></g>
<g><path style="opacity:0.744" fill="#ab2929" d="M 103.5,145.5 C 103.5,145.833 103.5,146.167 103.5,146.5C 103.241,150.24 103.574,153.906 104.5,157.5C 108.107,158.489 111.774,158.823 115.5,158.5C 115.5,162.833 115.5,167.167 115.5,171.5C 114.517,167.702 114.183,163.702 114.5,159.5C 110.774,159.823 107.107,159.489 103.5,158.5C 102.201,154.036 102.201,149.702 103.5,145.5 Z"/></g>
<g><path style="opacity:0.812" fill="#b1433e" d="M 141.5,157.5 C 141.5,157.833 141.5,158.167 141.5,158.5C 138.038,159.482 134.371,159.815 130.5,159.5C 130.813,163.042 130.479,166.375 129.5,169.5C 129.5,168.833 129.5,168.167 129.5,167.5C 129.18,164.102 129.513,160.768 130.5,157.5C 134.134,158.511 137.801,158.511 141.5,157.5 Z"/></g>
<g><path style="opacity:0.937" fill="#c94b46" d="M 190.5,149.5 C 191.5,149.5 192.5,149.5 193.5,149.5C 191.333,150.198 189.5,151.531 188,153.5C 184.571,160.295 182.071,167.295 180.5,174.5C 180.446,168.269 181.613,162.269 184,156.5C 184.962,153.039 187.128,150.705 190.5,149.5 Z"/></g>
<g><path style="opacity:0.796" fill="#c54c46" d="M 205.5,159.5 C 206.376,159.369 207.043,159.702 207.5,160.5C 210.099,166.228 211.432,172.228 211.5,178.5C 209.671,172.208 207.671,165.875 205.5,159.5 Z"/></g>
<g><path style="opacity:0.808" fill="#bb4c47" d="M 197.5,165.5 C 196.577,164.697 195.577,164.53 194.5,165C 193.915,166.302 193.249,167.469 192.5,168.5C 192.264,165.774 193.097,163.441 195,161.5C 196.481,162.471 197.315,163.804 197.5,165.5 Z"/></g>
<g><path style="opacity:1" fill="#ec1d24" d="M 261.5,167.5 C 261.865,177.7 259.865,187.367 255.5,196.5C 253.369,197.169 251.369,197.835 249.5,198.5C 245.213,199.726 240.88,200.893 236.5,202C 234.456,202.498 233.122,203.665 232.5,205.5C 231.101,206.89 229.434,207.89 227.5,208.5C 224.52,208.62 221.687,209.287 219,210.5C 218.581,209.328 217.915,208.328 217,207.5C 216.259,199.06 215.092,190.726 213.5,182.5C 212.764,175.816 211.764,169.15 210.5,162.5C 210.833,161.5 211.167,160.5 211.5,159.5C 212.396,160.506 213.062,160.506 213.5,159.5C 210.328,157.748 207.328,155.748 204.5,153.5C 205.516,150.866 205.516,148.2 204.5,145.5C 209.249,145.803 213.916,146.637 218.5,148C 216.285,149.391 216.285,151.057 218.5,153C 222.167,153.333 225.833,153.667 229.5,154C 234.843,157.709 240.51,160.709 246.5,163C 249.506,163.332 252.34,164.166 255,165.5C 255.333,165.167 255.667,164.833 256,164.5C 256.483,165.448 256.649,166.448 256.5,167.5C 257.5,167.5 258.5,167.5 259.5,167.5C 259.336,164.813 259.503,162.146 260,159.5C 260.183,162.365 260.683,165.031 261.5,167.5 Z"/></g>
<g><path style="opacity:0.914" fill="#b14640" d="M 82.5,134.5 C 82.9077,137.599 81.741,139.933 79,141.5C 78.3448,146.298 77.1781,150.965 75.5,155.5C 75.1667,159.167 74.8333,162.833 74.5,166.5C 75.3022,177.313 76.9689,187.979 79.5,198.5C 75.6587,192.136 73.492,185.136 73,177.5C 72.2087,168.451 72.7087,159.784 74.5,151.5C 76.4725,148.916 77.4725,145.916 77.5,142.5C 77.9255,139.881 78.9255,137.547 80.5,135.5C 81.1667,135.167 81.8333,134.833 82.5,134.5 Z"/></g>
<g><path style="opacity:0.881" fill="#b34e48" d="M 266.5,153.5 C 269.837,168.042 268.67,182.376 263,196.5C 261.89,198.037 260.39,198.703 258.5,198.5C 258.821,196.952 259.821,196.285 261.5,196.5C 265.96,182.531 267.627,168.198 266.5,153.5 Z"/></g>
<g><path style="opacity:0.009" fill="#fff3e7" d="M 129.5,167.5 C 129.5,168.167 129.5,168.833 129.5,169.5C 129.5,169.833 129.5,170.167 129.5,170.5C 127.5,170.5 125.5,170.5 123.5,170.5C 125.639,169.842 127.639,168.842 129.5,167.5 Z"/></g>
<g><path style="opacity:0.639" fill="#d87677" d="M 115.5,158.5 C 116.483,162.298 116.817,166.298 116.5,170.5C 118.833,170.5 121.167,170.5 123.5,170.5C 125.5,170.5 127.5,170.5 129.5,170.5C 125.03,171.486 120.363,171.819 115.5,171.5C 115.5,167.167 115.5,162.833 115.5,158.5 Z"/></g>
<g><path style="opacity:1" fill="#c91c23" d="M 266.5,153.5 C 267.627,168.198 265.96,182.531 261.5,196.5C 259.821,196.285 258.821,196.952 258.5,198.5C 257.167,198.5 255.833,198.5 254.5,198.5C 252.833,198.5 251.167,198.5 249.5,198.5C 251.369,197.835 253.369,197.169 255.5,196.5C 259.865,187.367 261.865,177.7 261.5,167.5C 261.818,162.968 261.485,158.634 260.5,154.5C 260.737,153.209 260.404,152.209 259.5,151.5C 259.167,149.5 258.833,147.5 258.5,145.5C 260.54,143.133 261.54,143.8 261.5,147.5C 262.5,147.5 263.5,147.5 264.5,147.5C 264.054,150.01 264.72,152.01 266.5,153.5 Z"/></g>
<g><path style="opacity:0.941" fill="#d15d54" d="M 190.5,175.5 C 190.664,178.187 190.497,180.854 190,183.5C 189.901,185.653 189.067,187.319 187.5,188.5C 187.882,183.908 188.882,179.575 190.5,175.5 Z"/></g>
<g><path style="opacity:0.848" fill="#757575" d="M 294.5,141.5 C 303.289,161.359 306.289,182.025 303.5,203.5C 303.473,195.606 302.807,195.606 301.5,203.5C 298.901,199.359 298.235,199.526 299.5,204C 297.981,205.218 296.814,206.718 296,208.5C 295.601,208.272 295.435,207.938 295.5,207.5C 299.716,185.436 299.383,163.436 294.5,141.5 Z"/></g>
<g><path style="opacity:0.756" fill="#2d2d2d" d="M 287.5,194.5 C 287.046,187.841 286.713,181.174 286.5,174.5C 286.866,169.532 287.366,169.866 288,175.5C 288.923,185.921 288.756,192.254 287.5,194.5 Z"/></g>
<g><path style="opacity:1" fill="#d24d48" d="M 168.5,195.5 C 162.836,181.25 155.003,179.917 145,191.5C 142.471,195.901 139.971,200.234 137.5,204.5C 134.826,200.163 131.493,196.496 127.5,193.5C 129.262,193.357 130.929,193.691 132.5,194.5C 134.177,196.54 135.844,198.54 137.5,200.5C 140.949,196.406 142.949,191.74 143.5,186.5C 147.241,187.401 149.241,186.068 149.5,182.5C 151.848,182.33 154.182,181.997 156.5,181.5C 164.566,182.83 168.566,187.497 168.5,195.5 Z"/></g>
<g><path style="opacity:1" fill="#e31f24" d="M 197.5,165.5 C 199.274,168.926 200.274,172.593 200.5,176.5C 200.292,181.635 200.959,186.635 202.5,191.5C 201.504,191.586 200.671,191.252 200,190.5C 199.862,184.419 199.196,178.419 198,172.5C 195.352,168.793 194.519,169.293 195.5,174C 192.961,178.1 193.628,181.766 197.5,185C 196.243,187.843 194.91,190.677 193.5,193.5C 193.853,195.731 194.686,197.731 196,199.5C 196.771,196.81 197.604,194.144 198.5,191.5C 199.535,197.371 199.202,203.204 197.5,209C 198.022,211.21 198.688,213.377 199.5,215.5C 199.176,217.569 198.342,217.902 197,216.5C 195.783,212.634 193.783,209.301 191,206.5C 190.214,201.19 190.714,196.023 192.5,191C 192.167,189.833 191.833,188.667 191.5,187.5C 189.23,193.95 188.063,200.617 188,207.5C 187.667,206.833 187.333,206.167 187,205.5C 186.663,211.539 185.997,217.539 185,223.5C 184.617,224.056 184.117,224.389 183.5,224.5C 183.5,221.5 183.5,218.5 183.5,215.5C 183.5,214.5 183.5,213.5 183.5,212.5C 184.117,212.389 184.617,212.056 185,211.5C 185.498,208.183 185.665,204.85 185.5,201.5C 185.909,197.124 186.575,192.79 187.5,188.5C 189.067,187.319 189.901,185.653 190,183.5C 190.497,180.854 190.664,178.187 190.5,175.5C 190.41,172.848 191.076,170.515 192.5,168.5C 193.249,167.469 193.915,166.302 194.5,165C 195.577,164.53 196.577,164.697 197.5,165.5 Z"/></g>
<g><path style="opacity:1" fill="#d14e47" d="M 127.5,193.5 C 124.813,193.336 122.146,193.503 119.5,194C 116.5,196.333 113.5,198.667 110.5,201C 108.26,201.977 105.927,202.477 103.5,202.5C 106.46,200.353 109.793,198.686 113.5,197.5C 113.67,196.178 113.337,195.011 112.5,194C 113.449,193.383 114.282,193.549 115,194.5C 117.133,192.147 119.8,191.147 123,191.5C 124.986,191.569 126.486,192.235 127.5,193.5 Z"/></g>
<g><path style="opacity:1" fill="#c33834" d="M 200.5,176.5 C 203.47,189.261 205.804,202.261 207.5,215.5C 206.069,215.119 205.236,214.119 205,212.5C 203.419,205.591 202.586,198.591 202.5,191.5C 200.959,186.635 200.292,181.635 200.5,176.5 Z"/></g>
<g><path style="opacity:0.855" fill="#cf4f4b" d="M 249.5,198.5 C 251.167,198.5 252.833,198.5 254.5,198.5C 247.154,200.509 239.821,202.842 232.5,205.5C 233.122,203.665 234.456,202.498 236.5,202C 240.88,200.893 245.213,199.726 249.5,198.5 Z"/></g>
<g><path style="opacity:1" fill="#eb1c22" d="M 202.5,191.5 C 202.586,198.591 203.419,205.591 205,212.5C 205.236,214.119 206.069,215.119 207.5,215.5C 207.439,220.534 209.773,224.034 214.5,226C 217.897,225.987 221.23,225.321 224.5,224C 226.063,223.241 227.063,222.074 227.5,220.5C 232.788,218.529 238.121,216.529 243.5,214.5C 244.239,214.369 244.906,214.536 245.5,215C 240.51,220.496 236.51,226.663 233.5,233.5C 220.815,244.515 207.815,255.181 194.5,265.5C 193.059,266.304 191.559,266.971 190,267.5C 184.459,265.41 178.959,265.076 173.5,266.5C 168.833,267.167 164.167,267.833 159.5,268.5C 155.818,268.665 152.152,268.499 148.5,268C 141.954,262.614 135.288,257.447 128.5,252.5C 123.436,247.06 117.936,242.06 112,237.5C 109.854,233.381 106.854,230.048 103,227.5C 100.128,223.817 97.9616,219.817 96.5,215.5C 98.099,215.768 99.4324,215.434 100.5,214.5C 103.01,214.946 105.01,214.28 106.5,212.5C 113.401,212.941 118.734,210.441 122.5,205C 123.448,204.517 124.448,204.351 125.5,204.5C 125.5,206.833 125.5,209.167 125.5,211.5C 126.552,211.351 127.552,211.517 128.5,212C 129.681,215.218 131.681,217.718 134.5,219.5C 137.795,220.401 141.128,220.401 144.5,219.5C 146.256,215.728 147.256,211.728 147.5,207.5C 149.055,202.057 151.888,197.39 156,193.5C 158.534,195.569 159.701,198.235 159.5,201.5C 161.469,217.201 163.303,232.868 165,248.5C 165.671,249.252 166.504,249.586 167.5,249.5C 169.297,250.73 171.297,251.396 173.5,251.5C 176.713,250.836 178.879,248.836 180,245.5C 180.662,238.27 181.829,231.27 183.5,224.5C 184.117,224.389 184.617,224.056 185,223.5C 185.997,217.539 186.663,211.539 187,205.5C 187.333,206.167 187.667,206.833 188,207.5C 188.063,200.617 189.23,193.95 191.5,187.5C 191.833,188.667 192.167,189.833 192.5,191C 190.714,196.023 190.214,201.19 191,206.5C 193.783,209.301 195.783,212.634 197,216.5C 198.342,217.902 199.176,217.569 199.5,215.5C 198.688,213.377 198.022,211.21 197.5,209C 199.202,203.204 199.535,197.371 198.5,191.5C 197.604,194.144 196.771,196.81 196,199.5C 194.686,197.731 193.853,195.731 193.5,193.5C 194.91,190.677 196.243,187.843 197.5,185C 193.628,181.766 192.961,178.1 195.5,174C 194.519,169.293 195.352,168.793 198,172.5C 199.196,178.419 199.862,184.419 200,190.5C 200.671,191.252 201.504,191.586 202.5,191.5 Z"/></g>
<g><path style="opacity:1" fill="#bb3e3a" d="M 180.5,175.5 C 178.392,187.146 176.392,198.813 174.5,210.5C 173.778,210.918 173.278,211.584 173,212.5C 172.617,211.944 172.117,211.611 171.5,211.5C 170.883,206.416 169.883,201.416 168.5,196.5C 170.055,199.44 171.721,202.44 173.5,205.5C 175.066,198.245 176.233,190.911 177,183.5C 177.875,180.599 179.042,177.932 180.5,175.5 Z"/></g>
<g><path style="opacity:1" fill="#cf4d49" d="M 211.5,181.5 C 212.167,181.833 212.833,182.167 213.5,182.5C 215.092,190.726 216.259,199.06 217,207.5C 217.915,208.328 218.581,209.328 219,210.5C 221.687,209.287 224.52,208.62 227.5,208.5C 224.493,211.48 220.826,213.147 216.5,213.5C 214.507,202.896 212.841,192.229 211.5,181.5 Z"/></g>
<g><path style="opacity:0.835" fill="#c95c59" d="M 185.5,201.5 C 185.665,204.85 185.498,208.183 185,211.5C 184.617,212.056 184.117,212.389 183.5,212.5C 183.808,208.64 184.475,204.974 185.5,201.5 Z"/></g>
<g><path style="opacity:0.882" fill="#c7413e" d="M 125.5,204.5 C 124.448,204.351 123.448,204.517 122.5,205C 118.734,210.441 113.401,212.941 106.5,212.5C 113.203,210.98 118.87,207.647 123.5,202.5C 124.522,202.855 125.189,203.522 125.5,204.5 Z"/></g>
<g><path style="opacity:0.529" fill="#a86f6a" d="M 174.5,210.5 C 173.786,217.541 172.786,217.875 171.5,211.5C 172.117,211.611 172.617,211.944 173,212.5C 173.278,211.584 173.778,210.918 174.5,210.5 Z"/></g>
<g><path style="opacity:0.765" fill="#ce413e" d="M 125.5,204.5 C 128.471,207.754 130.971,211.42 133,215.5C 135.932,220.373 139.265,220.706 143,216.5C 144.424,213.352 145.924,210.352 147.5,207.5C 147.256,211.728 146.256,215.728 144.5,219.5C 141.128,220.401 137.795,220.401 134.5,219.5C 131.681,217.718 129.681,215.218 128.5,212C 127.552,211.517 126.552,211.351 125.5,211.5C 125.5,209.167 125.5,206.833 125.5,204.5 Z"/></g>
<g><path style="opacity:1" fill="#d14d45" d="M 207.5,215.5 C 209.019,218.021 210.686,220.521 212.5,223C 217.839,224.019 222.839,223.186 227.5,220.5C 227.063,222.074 226.063,223.241 224.5,224C 221.23,225.321 217.897,225.987 214.5,226C 209.773,224.034 207.439,220.534 207.5,215.5 Z"/></g>
<g><path style="opacity:0.953" fill="#b44140" d="M 106.5,212.5 C 105.01,214.28 103.01,214.946 100.5,214.5C 94.039,214.079 91.8724,216.746 94,222.5C 101.034,228.915 106.868,236.248 111.5,244.5C 102.607,235.436 94.6069,225.602 87.5,215C 93.8184,213.983 100.152,213.15 106.5,212.5 Z"/></g>
<g><path style="opacity:1" fill="#b9403f" d="M 207.5,262.5 C 207.5,261.167 207.5,259.833 207.5,258.5C 211.031,258.535 213.698,257.035 215.5,254C 215.355,253.228 215.022,252.561 214.5,252C 216.473,251.505 218.473,251.338 220.5,251.5C 220.5,250.167 220.5,248.833 220.5,247.5C 223.541,247.594 225.207,246.094 225.5,243C 228.109,241.977 230.443,240.477 232.5,238.5C 231.477,236.105 232.477,235.105 235.5,235.5C 235.5,234.5 235.5,233.5 235.5,232.5C 236.5,232.5 237.5,232.5 238.5,232.5C 238.238,231.022 238.571,229.689 239.5,228.5C 245.171,224.474 248.838,219.141 250.5,212.5C 248.473,212.338 246.473,212.505 244.5,213C 243.944,213.383 243.611,213.883 243.5,214.5C 238.121,216.529 232.788,218.529 227.5,220.5C 236.187,213.833 245.853,210.166 256.5,209.5C 243.971,230.695 227.638,248.362 207.5,262.5 Z"/></g>
<g><path style="opacity:1" fill="#c81d22" d="M 100.5,214.5 C 99.4324,215.434 98.099,215.768 96.5,215.5C 97.9616,219.817 100.128,223.817 103,227.5C 106.854,230.048 109.854,233.381 112,237.5C 117.936,242.06 123.436,247.06 128.5,252.5C 135.288,257.447 141.954,262.614 148.5,268C 152.152,268.499 155.818,268.665 159.5,268.5C 155.855,269.442 152.022,270.108 148,270.5C 145.51,269.664 143.01,268.998 140.5,268.5C 137.208,266.542 134.208,264.209 131.5,261.5C 127.765,256.588 123.432,252.088 118.5,248C 116.715,245.774 114.382,244.608 111.5,244.5C 106.868,236.248 101.034,228.915 94,222.5C 91.8724,216.746 94.039,214.079 100.5,214.5 Z"/></g>
<g><path style="opacity:1" fill="#535353" d="M 303.5,203.5 C 301.769,224.034 295.102,242.7 283.5,259.5C 283.631,258.761 283.464,258.094 283,257.5C 282,258.833 281,260.167 280,261.5C 280,260.167 280,258.833 280,257.5C 277.29,258.559 275.457,257.559 274.5,254.5C 283.99,239.861 290.99,224.195 295.5,207.5C 295.435,207.938 295.601,208.272 296,208.5C 296.814,206.718 297.981,205.218 299.5,204C 298.235,199.526 298.901,199.359 301.5,203.5C 302.807,195.606 303.473,195.606 303.5,203.5 Z"/></g>
<g><path style="opacity:1" fill="#c33834" d="M 159.5,201.5 C 160.887,203.877 161.721,206.543 162,209.5C 163.834,222.843 165.668,236.177 167.5,249.5C 166.504,249.586 165.671,249.252 165,248.5C 163.303,232.868 161.469,217.201 159.5,201.5 Z"/></g>
<g><path style="opacity:1" fill="#c93e39" d="M 183.5,215.5 C 183.5,218.5 183.5,221.5 183.5,224.5C 181.829,231.27 180.662,238.27 180,245.5C 178.879,248.836 176.713,250.836 173.5,251.5C 175.144,250.684 176.31,249.35 177,247.5C 179.128,236.694 181.294,226.027 183.5,215.5 Z"/></g>
<g><path style="opacity:1" fill="#b13d3c" d="M 111.5,244.5 C 114.382,244.608 116.715,245.774 118.5,248C 123.432,252.088 127.765,256.588 131.5,261.5C 124.24,256.577 117.574,250.91 111.5,244.5 Z"/></g>
<g><path style="opacity:1" fill="#c91e23" d="M 207.5,262.5 C 204.09,266.238 200.09,269.238 195.5,271.5C 193.245,269.62 190.578,268.62 187.5,268.5C 186.737,267.732 185.737,267.232 184.5,267C 180.848,266.501 177.182,266.335 173.5,266.5C 178.959,265.076 184.459,265.41 190,267.5C 191.559,266.971 193.059,266.304 194.5,265.5C 207.815,255.181 220.815,244.515 233.5,233.5C 236.51,226.663 240.51,220.496 245.5,215C 244.906,214.536 244.239,214.369 243.5,214.5C 243.611,213.883 243.944,213.383 244.5,213C 246.473,212.505 248.473,212.338 250.5,212.5C 248.838,219.141 245.171,224.474 239.5,228.5C 238.571,229.689 238.238,231.022 238.5,232.5C 237.5,232.5 236.5,232.5 235.5,232.5C 235.5,233.5 235.5,234.5 235.5,235.5C 232.477,235.105 231.477,236.105 232.5,238.5C 230.443,240.477 228.109,241.977 225.5,243C 225.207,246.094 223.541,247.594 220.5,247.5C 220.5,248.833 220.5,250.167 220.5,251.5C 218.473,251.338 216.473,251.505 214.5,252C 215.022,252.561 215.355,253.228 215.5,254C 213.698,257.035 211.031,258.535 207.5,258.5C 207.5,259.833 207.5,261.167 207.5,262.5 Z"/></g>
<g><path style="opacity:1" fill="#7e130f" d="M 173.5,266.5 C 177.182,266.335 180.848,266.501 184.5,267C 185.737,267.232 186.737,267.732 187.5,268.5C 177.798,267.775 168.465,268.775 159.5,271.5C 156.404,272.919 153.071,273.919 149.5,274.5C 148.817,274.137 148.15,273.804 147.5,273.5C 144.883,272.214 142.55,270.547 140.5,268.5C 143.01,268.998 145.51,269.664 148,270.5C 152.022,270.108 155.855,269.442 159.5,268.5C 164.167,267.833 168.833,267.167 173.5,266.5 Z"/></g>
<g><path style="opacity:1" fill="#661513" d="M 187.5,268.5 C 190.578,268.62 193.245,269.62 195.5,271.5C 195.158,272.338 194.492,272.672 193.5,272.5C 188.298,270.867 182.965,269.867 177.5,269.5C 171.535,270.492 165.535,271.158 159.5,271.5C 168.465,268.775 177.798,267.775 187.5,268.5 Z"/></g>
<g><path style="opacity:0.812" fill="#7b7b7b" d="M 113.5,275.5 C 113.973,276.906 114.973,277.573 116.5,277.5C 116.842,278.338 117.508,278.672 118.5,278.5C 118.973,279.906 119.973,280.573 121.5,280.5C 124.142,281.895 126.809,283.395 129.5,285C 128.906,285.464 128.239,285.631 127.5,285.5C 121.084,282.793 114.751,279.793 108.5,276.5C 108.027,275.094 107.027,274.427 105.5,274.5C 104.486,273.326 103.153,272.66 101.5,272.5C 101.196,271.85 100.863,271.183 100.5,270.5C 101.698,270.06 102.865,269.727 104,269.5C 107.139,271.647 110.305,273.647 113.5,275.5 Z"/></g>
<g><path style="opacity:1" fill="#525252" d="M 267.5,244.5 C 266.876,246.849 266.543,249.182 266.5,251.5C 267.355,252.293 268.189,251.96 269,250.5C 269.273,252.101 269.773,253.601 270.5,255C 268.599,257.97 267.099,261.136 266,264.5C 264.989,265.337 263.822,265.67 262.5,265.5C 262.649,266.552 262.483,267.552 262,268.5C 259.657,270.736 257.49,273.069 255.5,275.5C 246.233,284.806 235.566,292.139 223.5,297.5C 220.094,297.302 217.094,298.302 214.5,300.5C 213.107,299.137 211.441,298.304 209.5,298C 211.833,297.667 214.167,297.333 216.5,297C 215.5,296.667 214.5,296.333 213.5,296C 215.167,295.667 216.833,295.333 218.5,295C 219.806,291.861 222.139,290.028 225.5,289.5C 224.5,288.667 223.5,287.833 222.5,287C 224.655,286.884 226.655,287.217 228.5,288C 228.167,287.667 227.833,287.333 227.5,287C 228.5,286.667 229.5,286.333 230.5,286C 229.106,285.829 228.272,285.329 228,284.5C 231.48,282.365 234.98,280.198 238.5,278C 236.109,277.309 236.109,276.309 238.5,275C 233.677,277.412 228.677,279.912 223.5,282.5C 222.537,282.03 222.537,281.363 223.5,280.5C 240.53,271.328 255.197,259.328 267.5,244.5 Z"/></g>
<g><path style="opacity:0.627" fill="#898989" d="M 121.5,280.5 C 121.027,279.094 120.027,278.427 118.5,278.5C 118.158,277.662 117.492,277.328 116.5,277.5C 116.027,276.094 115.027,275.427 113.5,275.5C 109.774,270.673 110.774,270.173 116.5,274C 119.659,277.082 123.325,279.416 127.5,281C 125.512,281.18 123.512,281.014 121.5,280.5 Z"/></g>
<g><path style="opacity:1" fill="#767474" d="M 193.5,272.5 C 193.833,273.167 194.167,273.833 194.5,274.5C 192.213,274.276 190.047,273.609 188,272.5C 187.5,272.667 187,272.833 186.5,273C 190.334,275.266 190.001,275.933 185.5,275C 186.328,275.915 187.328,276.581 188.5,277C 186.189,276.845 183.856,276.845 181.5,277C 179.774,278.53 177.774,279.53 175.5,280C 176.458,281.147 176.125,282.147 174.5,283C 171.237,283.064 168.237,283.898 165.5,285.5C 165.167,284.833 164.833,284.167 164.5,283.5C 163.583,284.127 162.583,284.461 161.5,284.5C 161.611,283.883 161.944,283.383 162.5,283C 154.289,282.541 146.122,283.041 138,284.5C 136.033,284.458 134.199,283.958 132.5,283C 131.167,282 131.167,281 132.5,280C 137.642,277.906 142.642,275.74 147.5,273.5C 148.15,273.804 148.817,274.137 149.5,274.5C 153.071,273.919 156.404,272.919 159.5,271.5C 165.535,271.158 171.535,270.492 177.5,269.5C 182.965,269.867 188.298,270.867 193.5,272.5 Z"/></g>
<g><path style="opacity:1" fill="#696969" d="M 101.5,272.5 C 102.287,274.104 103.62,274.771 105.5,274.5C 105.973,275.906 106.973,276.573 108.5,276.5C 113.881,281.355 120.214,284.355 127.5,285.5C 138.78,288.198 150.114,287.864 161.5,284.5C 162.583,284.461 163.583,284.127 164.5,283.5C 164.833,284.167 165.167,284.833 165.5,285.5C 168.237,283.898 171.237,283.064 174.5,283C 176.125,282.147 176.458,281.147 175.5,280C 177.774,279.53 179.774,278.53 181.5,277C 183.856,276.845 186.189,276.845 188.5,277C 187.328,276.581 186.328,275.915 185.5,275C 190.001,275.933 190.334,275.266 186.5,273C 187,272.833 187.5,272.667 188,272.5C 190.047,273.609 192.213,274.276 194.5,274.5C 196.38,274.229 197.713,274.896 198.5,276.5C 197.761,276.369 197.094,276.536 196.5,277C 199.177,278.463 200.177,280.463 199.5,283C 200.448,283.483 201.448,283.649 202.5,283.5C 202.33,284.822 202.663,285.989 203.5,287C 194.631,290.058 186.298,294.058 178.5,299C 174.876,298.987 171.876,300.32 169.5,303C 167,303.5 164.5,304 162,304.5C 158.621,303.987 155.287,303.654 152,303.5C 150.022,306.574 147.188,308.241 143.5,308.5C 131.281,305.475 120.114,300.141 110,292.5C 108.627,291.485 107.46,291.485 106.5,292.5C 98.8544,286.854 92.1878,280.188 86.5,272.5C 86.9458,269.914 88.4458,268.58 91,268.5C 94.5642,269.7 98.0642,271.034 101.5,272.5 Z M 118.5,278.5 C 120.027,278.427 121.027,279.094 121.5,280.5C 119.973,280.573 118.973,279.906 118.5,278.5 Z M 108.5,276.5 C 114.751,279.793 121.084,282.793 127.5,285.5C 120.214,284.355 113.881,281.355 108.5,276.5 Z M 113.5,275.5 C 115.027,275.427 116.027,276.094 116.5,277.5C 114.973,277.573 113.973,276.906 113.5,275.5 Z M 105.5,274.5 C 107.027,274.427 108.027,275.094 108.5,276.5C 106.973,276.573 105.973,275.906 105.5,274.5 Z M 101.5,272.5 C 103.153,272.66 104.486,273.326 105.5,274.5C 103.62,274.771 102.287,274.104 101.5,272.5 Z"/></g>
<g><path style="opacity:1" fill="#5c5c5c" d="M 223.5,297.5 C 219.081,300.376 214.414,302.71 209.5,304.5C 192.521,310.085 175.188,313.085 157.5,313.5C 138.727,310.582 121.727,303.582 106.5,292.5C 107.46,291.485 108.627,291.485 110,292.5C 120.114,300.141 131.281,305.475 143.5,308.5C 147.188,308.241 150.022,306.574 152,303.5C 155.287,303.654 158.621,303.987 162,304.5C 164.5,304 167,303.5 169.5,303C 171.876,300.32 174.876,298.987 178.5,299C 186.298,294.058 194.631,290.058 203.5,287C 202.663,285.989 202.33,284.822 202.5,283.5C 201.448,283.649 200.448,283.483 199.5,283C 200.177,280.463 199.177,278.463 196.5,277C 197.094,276.536 197.761,276.369 198.5,276.5C 202.357,278.839 206.357,281.006 210.5,283C 212.833,283.667 215.167,283.667 217.5,283C 219.407,281.878 221.407,281.045 223.5,280.5C 222.537,281.363 222.537,282.03 223.5,282.5C 228.677,279.912 233.677,277.412 238.5,275C 236.109,276.309 236.109,277.309 238.5,278C 234.98,280.198 231.48,282.365 228,284.5C 228.272,285.329 229.106,285.829 230.5,286C 229.5,286.333 228.5,286.667 227.5,287C 227.833,287.333 228.167,287.667 228.5,288C 226.655,287.217 224.655,286.884 222.5,287C 223.5,287.833 224.5,288.667 225.5,289.5C 222.139,290.028 219.806,291.861 218.5,295C 216.833,295.333 215.167,295.667 213.5,296C 214.5,296.333 215.5,296.667 216.5,297C 214.167,297.333 211.833,297.667 209.5,298C 211.441,298.304 213.107,299.137 214.5,300.5C 217.094,298.302 220.094,297.302 223.5,297.5 Z"/></g>
<g><path style="opacity:1" fill="#313131" d="M 268.5,278.5 C 252.751,294.873 233.751,305.873 211.5,311.5C 213.143,309.292 212.81,307.459 210.5,306C 211.712,304.893 211.379,304.393 209.5,304.5C 214.414,302.71 219.081,300.376 223.5,297.5C 235.566,292.139 246.233,284.806 255.5,275.5C 257.722,275.822 259.556,275.155 261,273.5C 261.684,274.784 261.517,275.951 260.5,277C 261.448,277.483 262.448,277.649 263.5,277.5C 263.351,276.448 263.517,275.448 264,274.5C 264.508,276.904 265.675,277.571 267.5,276.5C 264.864,274.936 265.031,273.603 268,272.5C 268.495,274.473 268.662,276.473 268.5,278.5 Z"/></g>
<g><path style="opacity:1" fill="#242424" d="M 209.5,304.5 C 211.379,304.393 211.712,304.893 210.5,306C 212.81,307.459 213.143,309.292 211.5,311.5C 193.647,315.899 175.647,316.566 157.5,313.5C 175.188,313.085 192.521,310.085 209.5,304.5 Z"/></g>
</svg>
